<svg width="96" height="96" viewBox="0 0 96 96" fill="none" xmlns="http://www.w3.org/2000/svg">
<path d="M47.9999 8.00195C49.3806 8.00195 50.4999 9.12124 50.4999 10.502V15.502C50.4999 16.8827 49.3806 18.002 47.9999 18.002C46.6192 18.002 45.4999 16.8827 45.4999 15.502V10.502C45.4999 9.12124 46.6192 8.00195 47.9999 8.00195ZM48.0912 68.0437C59.1096 68.0437 68.0418 59.1115 68.0418 48.093C68.0418 37.0746 59.1096 28.1424 48.0912 28.1424C37.0727 28.1424 28.1405 37.0746 28.1405 48.093C28.1405 59.1115 37.0727 68.0437 48.0912 68.0437ZM48.0912 63.0437C39.8342 63.0437 33.1405 56.3501 33.1405 48.093C33.1405 39.836 39.8342 33.1424 48.0912 33.1424C56.3482 33.1424 63.0418 39.836 63.0418 48.093C63.0418 56.3501 56.3482 63.0437 48.0912 63.0437ZM85.4999 50.5005C86.8806 50.5005 87.9999 49.3812 87.9999 48.0005C87.9999 46.6198 86.8806 45.5005 85.4999 45.5005H80.4999C79.1192 45.5005 77.9999 46.6198 77.9999 48.0005C77.9999 49.3812 79.1192 50.5005 80.4999 50.5005H85.4999ZM47.9999 78.0011C49.3806 78.0011 50.4999 79.1204 50.4999 80.5011V85.5005C50.4999 86.8812 49.3806 88.0005 47.9999 88.0005C46.6192 88.0005 45.4999 86.8812 45.4999 85.5005V80.5011C45.4999 79.1204 46.6192 78.0011 47.9999 78.0011ZM15.4999 50.5005C16.8806 50.5005 17.9999 49.3812 17.9999 48.0005C17.9999 46.6198 16.8806 45.5005 15.4999 45.5005H10.499C9.11831 45.5005 7.99902 46.6198 7.99902 48.0005C7.99902 49.3812 9.11831 50.5005 10.499 50.5005H15.4999ZM18.7321 18.733C19.7084 17.7567 21.2914 17.7567 22.2677 18.733L27.2677 23.733C28.244 24.7093 28.244 26.2922 27.2677 27.2685C26.2914 28.2448 24.7084 28.2448 23.7321 27.2685L18.7321 22.2685C17.7558 21.2922 17.7558 19.7093 18.7321 18.733ZM22.2677 77.2695C21.2914 78.2458 19.7084 78.2458 18.7321 77.2695C17.7558 76.2932 17.7558 74.7103 18.7321 73.7339L23.7321 68.7339C24.7084 67.7576 26.2914 67.7576 27.2677 68.7339C28.244 69.7103 28.244 71.2932 27.2677 72.2695L22.2677 77.2695ZM77.2677 18.733C76.2914 17.7567 74.7084 17.7567 73.7321 18.733L68.7321 23.733C67.7558 24.7093 67.7558 26.2922 68.7321 27.2685C69.7084 28.2448 71.2914 28.2448 72.2677 27.2685L77.2677 22.2685C78.244 21.2922 78.244 19.7093 77.2677 18.733ZM73.7321 77.2695C74.7084 78.2458 76.2914 78.2458 77.2677 77.2695C78.244 76.2932 78.244 74.7103 77.2677 73.7339L72.2677 68.7339C71.2914 67.7576 69.7084 67.7576 68.7321 68.7339C67.7558 69.7103 67.7558 71.2932 68.7321 72.2695L73.7321 77.2695Z" fill="#0078D4"/>
</svg>
