<svg width="49" height="48" viewBox="0 0 49 48" fill="none" xmlns="http://www.w3.org/2000/svg">
<path d="M6.5 12.25C6.5 8.79822 9.29822 6 12.75 6H18.25C18.9404 6 19.5 6.55964 19.5 7.25C19.5 7.94036 18.9404 8.5 18.25 8.5H12.75C10.6789 8.5 9 10.1789 9 12.25V17.75C9 18.4404 8.44036 19 7.75 19C7.05964 19 6.5 18.4404 6.5 17.75V12.25ZM29.5 7.25C29.5 6.55964 30.0596 6 30.75 6H36.25C39.7018 6 42.5 8.79822 42.5 12.25V17.75C42.5 18.4404 41.9404 19 41.25 19C40.5596 19 40 18.4404 40 17.75V12.25C40 10.1789 38.3211 8.5 36.25 8.5H30.75C30.0596 8.5 29.5 7.94036 29.5 7.25ZM7.75 29C8.44036 29 9 29.5596 9 30.25V35.75C9 37.8211 10.6789 39.5 12.75 39.5H18.25C18.9404 39.5 19.5 40.0596 19.5 40.75C19.5 41.4404 18.9404 42 18.25 42H12.75C9.29822 42 6.5 39.2018 6.5 35.75V30.25C6.5 29.5596 7.05964 29 7.75 29ZM41.25 29C41.9404 29 42.5 29.5596 42.5 30.25V35.75C42.5 39.2018 39.7018 42 36.25 42H30.75C30.0596 42 29.5 41.4404 29.5 40.75C29.5 40.0596 30.0596 39.5 30.75 39.5H36.2491C36.2488 39.5 36.2494 39.5 36.2491 39.5C36.2916 39.5 36.3348 39.4993 36.3769 39.4979C36.7007 39.487 37.0142 39.4351 37.3122 39.3472C37.3121 39.3473 37.3122 39.3471 37.3122 39.3472C38.866 38.8892 40 37.4522 40 35.75V30.25C40 29.5596 40.5596 29 41.25 29ZM13.9991 37.5V37.25C13.9991 35.7312 15.2303 34.5 16.7491 34.5H32.2491C33.7679 34.5 34.9991 35.7312 34.9991 37.25V37.5H36.2491C36.7353 37.5 37.1752 37.3017 37.4924 36.9816C37.3526 34.2068 35.0586 32 32.2491 32H16.7491C13.9396 32 11.6456 34.2068 11.5059 36.9816C11.823 37.3017 12.2629 37.5 12.7491 37.5H13.9991ZM24.4991 26.5C21.4616 26.5 18.9991 24.0376 18.9991 21C18.9991 17.9624 21.4616 15.5 24.4991 15.5C27.5367 15.5 29.9991 17.9624 29.9991 21C29.9991 24.0376 27.5367 26.5 24.4991 26.5ZM24.4991 29C28.9174 29 32.4991 25.4183 32.4991 21C32.4991 16.5817 28.9174 13 24.4991 13C20.0808 13 16.4991 16.5817 16.4991 21C16.4991 25.4183 20.0808 29 24.4991 29Z" fill="#0078D4"/>
</svg>
