<svg xmlns="http://www.w3.org/2000/svg" xmlns:xlink="http://www.w3.org/1999/xlink" viewBox="0 0 120 120" width="120"
    height="120" preserveAspectRatio="xMidYMid meet"
    style="width: 100%; height: 100%; transform: translate3d(0px, 0px, 0px); content-visibility: visible;">
    <defs>
        <clipPath id="__lottie_element_30">
            <rect width="120" height="120" x="0" y="0"></rect>
        </clipPath>
    </defs>
    <g clip-path="url(#__lottie_element_30)">
        <g transform="matrix(1,0,0,1,0,0)" opacity="0" style="display: block;">
            <path fill="rgb(255,255,255)" fill-opacity="1"
                d=" M120,0 C120,0 120,120 120,120 C120,120 0,120 0,120 C0,120 0,0 0,0 C0,0 120,0 120,0z"></path>
        </g>
        <g transform="matrix(1,0,0,1,17.110000610351562,8)" opacity="1" style="display: block;">
            <path stroke-linecap="butt" stroke-linejoin="round" fill-opacity="0" stroke="rgb(255,255,255)"
                stroke-opacity="1" stroke-width="2"
                d=" M42.88999938964844,0.009999999776482582 C34.69900131225586,-0.16300000250339508 16.474000930786133,1.9479999542236328 9.10200023651123,11.736000061035156 C0.41999998688697815,23.26799964904785 -0.7369999885559082,37.8380012512207 0.33799999952316284,52.2140007019043 C0.48100000619888306,54.1510009765625 0.625,56.0890007019043 0.7680000066757202,57.974998474121094 C1.8229999542236328,71.73999786376953 6.500999927520752,85.4540023803711 17.507999420166016,93.84500122070312 C24.562000274658203,99.22899627685547 33.48099899291992,104.01000213623047 42.88999938964844,104.01000213623047 C52.29899978637695,104.01000213623047 61.21799850463867,99.22899627685547 68.27200317382812,93.84500122070312 C79.27899932861328,85.4540023803711 83.9469985961914,71.73999786376953 85.00199890136719,57.974998474121094 C85.1449966430664,56.0890007019043 85.29900360107422,54.1510009765625 85.44200134277344,52.2140007019043 C86.51699829101562,37.8380012512207 85.36000061035156,23.26799964904785 76.6780014038086,11.736000061035156 C69.30599975585938,1.9479999542236328 51.08100128173828,-0.16300000250339508 42.88999938964844,0.009999999776482582 C42.88999938964844,0.009999999776482582 42.88999938964844,0.009999999776482582 42.88999938964844,0.009999999776482582z">
            </path>
        </g>
        <g transform="matrix(1,0,0,1,35,35)" opacity="1" style="display: block;">
            <path fill="rgb(0,0,0)" fill-opacity="1"
                d=" M0.5,2.9600000381469727 C2.0899999141693115,2.049999952316284 4.570000171661377,1.3300000429153442 7.21999979019165,1.090000033378601 C9.869999885559082,0.8500000238418579 12.550000190734863,1.090000033378601 14.59000015258789,2 C14.59000015258789,2 15.40999984741211,0.18000000715255737 15.40999984741211,0.18000000715255737 C12.949999809265137,-0.9100000262260437 9.880000114440918,-1.1699999570846558 7.03000020980835,-0.9100000262260437 C4.179999828338623,-0.6499999761581421 1.409999966621399,0.12999999523162842 -0.5,1.2200000286102295 C-0.5,1.2200000286102295 0.5,2.9600000381469727 0.5,2.9600000381469727 C0.5,2.9600000381469727 0.5,2.9600000381469727 0.5,2.9600000381469727z M14.59000015258789,2 C15.09000015258789,2.2200000286102295 15.6899995803833,2 15.90999984741211,1.5 C16.1299991607666,1 15.90999984741211,0.4000000059604645 15.40999984741211,0.18000000715255737 C15.40999984741211,0.18000000715255737 14.59000015258789,2 14.59000015258789,2 C14.59000015258789,2 14.59000015258789,2 14.59000015258789,2z M-0.5,1.2200000286102295 C-0.9800000190734863,1.4900000095367432 -1.1399999856948853,2.0999999046325684 -0.8700000047683716,2.5799999237060547 C-0.6000000238418579,3.059999942779541 0.019999999552965164,3.2300000190734863 0.5,2.9600000381469727 C0.5,2.9600000381469727 -0.5,1.2200000286102295 -0.5,1.2200000286102295 C-0.5,1.2200000286102295 -0.5,1.2200000286102295 -0.5,1.2200000286102295z">
            </path>
        </g>
        <g transform="matrix(-1,0,0,1,85,35)" opacity="1" style="display: block;">
            <path fill="rgb(0,0,0)" fill-opacity="1"
                d=" M0.5,2.9600000381469727 C2.0899999141693115,2.049999952316284 4.570000171661377,1.3300000429153442 7.21999979019165,1.090000033378601 C9.869999885559082,0.8500000238418579 12.550000190734863,1.090000033378601 14.59000015258789,2 C14.59000015258789,2 15.40999984741211,0.18000000715255737 15.40999984741211,0.18000000715255737 C12.949999809265137,-0.9100000262260437 9.880000114440918,-1.1699999570846558 7.03000020980835,-0.9100000262260437 C4.179999828338623,-0.6499999761581421 1.409999966621399,0.12999999523162842 -0.5,1.2200000286102295 C-0.5,1.2200000286102295 0.5,2.9600000381469727 0.5,2.9600000381469727 C0.5,2.9600000381469727 0.5,2.9600000381469727 0.5,2.9600000381469727z M14.59000015258789,2 C15.09000015258789,2.2200000286102295 15.6899995803833,2 15.90999984741211,1.5 C16.1299991607666,1 15.90999984741211,0.4000000059604645 15.40999984741211,0.18000000715255737 C15.40999984741211,0.18000000715255737 14.59000015258789,2 14.59000015258789,2 C14.59000015258789,2 14.59000015258789,2 14.59000015258789,2z M-0.5,1.2200000286102295 C-0.9800000190734863,1.4900000095367432 -1.1399999856948853,2.0999999046325684 -0.8700000047683716,2.5799999237060547 C-0.6000000238418579,3.059999942779541 0.019999999552965164,3.2300000190734863 0.5,2.9600000381469727 C0.5,2.9600000381469727 -0.5,1.2200000286102295 -0.5,1.2200000286102295 C-0.5,1.2200000286102295 -0.5,1.2200000286102295 -0.5,1.2200000286102295z">
            </path>
        </g>
        <g transform="matrix(1,0,0,1,39,48.59000015258789)" opacity="1" style="display: block;">
            <path fill="rgb(0,0,0)" fill-opacity="1"
                d=" M10.5,5.25 C10.5,8.149999618530273 8.149999618530273,10.5 5.25,10.5 C2.3499999046325684,10.5 0,8.149999618530273 0,5.25 C0,2.3499999046325684 2.3499999046325684,0 5.25,0 C8.149999618530273,0 10.5,2.3499999046325684 10.5,5.25 C10.5,5.25 10.5,5.25 10.5,5.25z">
            </path>
        </g>
        <g transform="matrix(-1,0,0,1,80,48.59000015258789)" opacity="1" style="display: block;">
            <path fill="rgb(0,0,0)" fill-opacity="1"
                d=" M10.5,5.25 C10.5,8.149999618530273 8.149999618530273,10.5 5.25,10.5 C2.3499999046325684,10.5 0,8.149999618530273 0,5.25 C0,2.3499999046325684 2.3499999046325684,0 5.25,0 C8.149999618530273,0 10.5,2.3499999046325684 10.5,5.25 C10.5,5.25 10.5,5.25 10.5,5.25z">
            </path>
        </g>
        <g transform="matrix(1,0,0,1,46,78.72000122070312)" opacity="1" style="display: block;">
            <path fill="rgb(0,90,158)" fill-opacity="1"
                d=" M-1.2000000476837158,0.8999999761581421 C1.5299999713897705,4.53000020980835 6.380000114440918,7.769999980926514 11.930000305175781,8.489999771118164 C17.579999923706055,9.229999542236328 23.829999923706055,7.340000152587891 29.149999618530273,0.9599999785423279 C29.149999618530273,0.9599999785423279 26.850000381469727,-0.9599999785423279 26.850000381469727,-0.9599999785423279 C22.170000076293945,4.659999847412109 16.920000076293945,6.110000133514404 12.319999694824219,5.510000228881836 C7.619999885559082,4.900000095367432 3.4700000286102295,2.130000114440918 1.2000000476837158,-0.8999999761581421 C1.2000000476837158,-0.8999999761581421 -1.2000000476837158,0.8999999761581421 -1.2000000476837158,0.8999999761581421 C-1.2000000476837158,0.8999999761581421 -1.2000000476837158,0.8999999761581421 -1.2000000476837158,0.8999999761581421z M29.149999618530273,0.9599999785423279 C29.68000030517578,0.3199999928474426 29.600000381469727,-0.6200000047683716 28.959999084472656,-1.149999976158142 C28.31999969482422,-1.6799999475479126 27.3799991607666,-1.600000023841858 26.850000381469727,-0.9599999785423279 C26.850000381469727,-0.9599999785423279 29.149999618530273,0.9599999785423279 29.149999618530273,0.9599999785423279 C29.149999618530273,0.9599999785423279 29.149999618530273,0.9599999785423279 29.149999618530273,0.9599999785423279z M1.2000000476837158,-0.8999999761581421 C0.699999988079071,-1.559999942779541 -0.23999999463558197,-1.7000000476837158 -0.8999999761581421,-1.2000000476837158 C-1.559999942779541,-0.699999988079071 -1.7000000476837158,0.23999999463558197 -1.2000000476837158,0.8999999761581421 C-1.2000000476837158,0.8999999761581421 1.2000000476837158,-0.8999999761581421 1.2000000476837158,-0.8999999761581421 C1.2000000476837158,-0.8999999761581421 1.2000000476837158,-0.8999999761581421 1.2000000476837158,-0.8999999761581421z">
            </path>
        </g>
        <g transform="matrix(1,0,0,1,57,63)" opacity="1" style="display: block;">
            <path fill="rgb(0,0,0)" fill-opacity="1"
                d=" M0,2.5 C0,1.1200000047683716 1.1200000047683716,0 2.5,0 C3.880000114440918,0 5,1.1200000047683716 5,2.5 C5,2.5 5,7.5 5,7.5 C5,8.880000114440918 3.880000114440918,10 2.5,10 C1.1200000047683716,10 0,8.880000114440918 0,7.5 C0,7.5 0,2.5 0,2.5 C0,2.5 0,2.5 0,2.5z">
            </path>
        </g>
    </g>
</svg>